<svg width="71" height="99" viewBox="0 0 71 99" fill="none" xmlns="http://www.w3.org/2000/svg">
<path d="M35.4569 98.7499L6.56502 90.8184L0.126465 19.4067H70.8738L64.4286 90.8074L35.4569 98.7499Z" fill="#264DE4"/>
<path d="M58.9106 86.2608L64.4182 25.2455H35.5V92.6788L58.9106 86.2608Z" fill="#2965F1"/>
<path d="M14.8867 51.7312L15.6803 60.4896H35.5002V51.7312H14.8867ZM13.2915 34.0042L14.0966 42.7625H35.5002V34.0042H13.2915ZM35.5002 74.4776L35.4614 74.4878L25.5976 71.854L24.967 64.8689H16.0761L17.3168 78.6208L35.4594 83.601L35.5002 83.59V74.4776Z" fill="#EBEBEB"/>
<path d="M56.057 51.7312L57.6557 34.0042H35.4695V42.7625H47.9495L47.1436 51.7312H35.4695V60.4896H46.3757L45.3474 71.8485L35.4692 74.485V83.5969L53.6263 78.6208L53.7594 77.141L55.8409 54.0831L56.057 51.7312Z" fill="white"/>
</svg>
