{
  "accessors": [
    {
      "bufferView": 2,
      "componentType": 5126,
      "count": 1809,
      "max": [
        0.6304524540901184,
        0.6304518580436707,
        0.6304526329040527
      ],
      "min": [
        -0.630452036857605,
        -0.6304522752761841,
        -0.6304526329040527
      ],
      "type": "VEC3"
    },
    {
      "bufferView": 2,
      "byteOffset": 21708,
      "componentType": 5126,
      "count": 1809,
      "max": [
        1.0,
        1.0,
        1.0
      ],
      "min": [
        -1.0,
        -1.0,
        -1.0
      ],
      "type": "VEC3"
    },
    {
      "bufferView": 1,
      "componentType": 5126,
      "count": 1809,
      "max": [
        0.8750003576278687,
        1.0000003576278687
      ],
      "min": [
        0.1250000149011612,
        0.0
      ],
      "type": "VEC2"
    },
    {
      "bufferView": 0,
      "componentType": 5125,
      "count": 9216,
      "type": "SCALAR"
    },
    {
      "bufferView": 2,
      "byteOffset": 43416,
      "componentType": 5126,
      "count": 130,
      "max": [
        0.8520767688751221,
        0.8520767688751221,
        0.0
      ],
      "min": [
        -0.8520767688751221,
        -0.8520767688751221,
        0.0
      ],
      "type": "VEC3"
    },
    {
      "bufferView": 2,
      "byteOffset": 44976,
      "componentType": 5126,
      "count": 130,
      "max": [
        0.0,
        0.0,
        1.0
      ],
      "min": [
        0.0,
        0.0,
        1.0
      ],
      "type": "VEC3"
    },
    {
      "bufferView": 1,
      "byteOffset": 14472,
      "componentType": 5126,
      "count": 130,
      "max": [
        0.8914130926132202,
        0.992172360420227
      ],
      "min": [
        0.05034974217414856,
        0.007827669382095337
      ],
      "type": "VEC2"
    },
    {
      "bufferView": 0,
      "byteOffset": 36864,
      "componentType": 5125,
      "count": 384,
      "type": "SCALAR"
    }
  ],
  "asset": {
    "extras": {
      "author": "berzerkey (https://sketchfab.com/berzerkey)",
      "license": "CC-BY-4.0 (http://creativecommons.org/licenses/by/4.0/)",
      "source": "https://sketchfab.com/3d-models/ringed-gas-giant-planet-b4e21775e84e4cf3890f7796cfab1aca",
      "title": "Ringed Gas Giant Planet"
    },
    "generator": "Sketchfab-12.67.0",
    "version": "2.0"
  },
  "bufferViews": [
    {
      "buffer": 0,
      "byteLength": 38400,
      "name": "floatBufferViews",
      "target": 34963
    },
    {
      "buffer": 0,
      "byteLength": 15512,
      "byteOffset": 38400,
      "byteStride": 8,
      "name": "floatBufferViews",
      "target": 34962
    },
    {
      "buffer": 0,
      "byteLength": 46536,
      "byteOffset": 53912,
      "byteStride": 12,
      "name": "floatBufferViews",
      "target": 34962
    }
  ],
  "buffers": [
    {
      "byteLength": 100448,
      "uri": "scene.bin"
    }
  ],
  "images": [
    {
      "uri": "textures/m_planet_baseColor.png"
    },
    {
      "uri": "textures/m_ring_baseColor.png"
    },
    {
      "uri": "textures/m_ring_metallicRoughness.png"
    }
  ],
  "materials": [
    {
      "doubleSided": true,
      "name": "m_planet",
      "pbrMetallicRoughness": {
        "baseColorTexture": {
          "index": 0
        },
        "metallicFactor": 0.0
      }
    },
    {
      "alphaCutoff": 0.0,
      "alphaMode": "MASK",
      "doubleSided": true,
      "name": "m_ring",
      "pbrMetallicRoughness": {
        "baseColorTexture": {
          "index": 1
        },
        "metallicFactor": 0.0,
        "metallicRoughnessTexture": {
          "index": 2
        }
      }
    }
  ],
  "meshes": [
    {
      "name": "Cube_m_planet_0",
      "primitives": [
        {
          "attributes": {
            "NORMAL": 1,
            "POSITION": 0,
            "TEXCOORD_0": 2
          },
          "indices": 3,
          "material": 0,
          "mode": 4
        }
      ]
    },
    {
      "name": "Plane_m_ring_0",
      "primitives": [
        {
          "attributes": {
            "NORMAL": 5,
            "POSITION": 4,
            "TEXCOORD_0": 6
          },
          "indices": 7,
          "material": 1,
          "mode": 4
        }
      ]
    }
  ],
  "nodes": [
    {
      "children": [
        1
      ],
      "matrix": [
        0.9778754711151123,
        0.20918790996074677,
        3.951015291841981e-17,
        0.0,
        0.07487320899963379,
        -0.3500043153762815,
        -0.9337510466575624,
        0.0,
        -0.1953294277191162,
        0.9130921959877015,
        -0.3579232096672056,
        0.0,
        -6.489288466582366e-07,
        -1.8724145434134672e-07,
        -1.1702634310495341e-06,
        1.0
      ],
      "name": "Sketchfab_model"
    },
    {
      "children": [
        2
      ],
      "matrix": [
        0.009999999776482582,
        0.0,
        0.0,
        0.0,
        0.0,
        0.0,
        0.009999999776482582,
        0.0,
        0.0,
        -0.009999999776482582,
        0.0,
        0.0,
        0.0,
        0.0,
        0.0,
        1.0
      ],
      "name": "55ed571775ff4044845a8a7ee25d2447.fbx"
    },
    {
      "children": [
        3,
        5
      ],
      "name": "RootNode"
    },
    {
      "children": [
        4
      ],
      "matrix": [
        588.1204223632813,
        0.0,
        0.0,
        0.0,
        0.0,
        -9.581697877563662e-05,
        -588.1204223632735,
        0.0,
        0.0,
        588.1204223632735,
        -9.581697877563662e-05,
        0.0,
        0.0,
        0.0,
        0.0,
        1.0
      ],
      "name": "Cube"
    },
    {
      "mesh": 0,
      "name": "Cube_m_planet_0"
    },
    {
      "children": [
        6
      ],
      "matrix": [
        1039.4061279296875,
        0.0,
        0.0,
        0.0,
        0.0,
        -0.00016934075252633752,
        -1039.4061279296739,
        0.0,
        0.0,
        1039.4061279296739,
        -0.00016934075252633752,
        0.0,
        0.0,
        0.0,
        0.0,
        1.0
      ],
      "name": "Plane"
    },
    {
      "mesh": 1,
      "name": "Plane_m_ring_0"
    }
  ],
  "samplers": [
    {
      "magFilter": 9729,
      "minFilter": 9987,
      "wrapS": 10497,
      "wrapT": 10497
    }
  ],
  "scene": 0,
  "scenes": [
    {
      "name": "Sketchfab_Scene",
      "nodes": [
        0
      ]
    }
  ],
  "textures": [
    {
      "sampler": 0,
      "source": 0
    },
    {
      "sampler": 0,
      "source": 1
    },
    {
      "sampler": 0,
      "source": 2
    }
  ]
}
